# xmcd
#
# Track frame offsets:
#	183
#	19638
#	37113
#
# Disc length: 752 seconds
#
# Revision: 0
# Processed by: cddbd v1.4PL0 Copyright (c) Steve Scherf et al.
# Submitted via: EasyCDDAExtractor 4.6.0.1
#
DISCID=1c02ee03
DTITLE=Amii Steward - It's Fanfasy
DYEAR=1992
DGENRE=Blues
TTITLE0=It's Fantasy
TTITLE1=Sometimes A Stranger
TTITLE2=Window Shopping
EXTD=
EXTT0=
EXTT1=
EXTT2=
PLAYORDER=
